<svg width="216.000000" height="52.000000" viewBox="0 0 216 52" fill="none" xmlns="http://www.w3.org/2000/svg" xmlns:xlink="http://www.w3.org/1999/xlink">
	<desc>
			Created with Pixso.
	</desc>
	<defs/>
	<path id="OJJO" d="M26.0832 52Q32.0104 52 36.9431 49.785Q41.0995 47.9186 44.5497 44.4794Q48.1992 40.8416 50.1 36.4474Q52.1663 31.6707 52.1663 26Q52.1663 20.246 50.0388 15.4323L50.0386 15.432Q48.1407 11.1381 44.5497 7.59229Q41.0353 4.05579 36.7882 2.1665Q31.9175 0 26.0832 0Q20.3329 0 15.4989 2.10449Q11.1512 3.99719 7.54471 7.59229Q4.05118 11.0747 2.17529 15.2789L2.17526 15.2789Q0 20.1542 0 26Q0 31.7617 2.11313 36.6006L2.11316 36.6007L2.11337 36.6012Q3.9931 40.9054 7.54471 44.4794Q11.0869 47.9769 15.3441 49.8479L15.3441 49.848Q20.2407 52 26.0832 52ZM189.917 52C197.198 52 203.354 49.4932 208.383 44.4794C213.461 39.4178 216 33.2581 216 26C216 18.7419 213.461 12.6061 208.383 7.59229C203.354 2.53076 197.198 0 189.917 0C182.636 0 176.456 2.53076 171.378 7.59229C166.349 12.6061 163.834 18.7419 163.834 26C163.834 33.2581 166.349 39.4178 171.378 44.4794C176.456 49.4932 182.636 52 189.917 52ZM64.0374 42.8319C67.0074 48.944 72.3965 52 80.2047 52C85.2345 52 89.3781 50.6152 92.6355 47.8457C95.8929 45.0284 97.5216 41.0414 97.5216 35.8843L97.5216 0.931152L89.2584 0.931152L89.2584 35.8843C89.2584 38.4628 88.468 40.4683 86.8871 41.9009C85.3542 43.2856 83.1507 43.9779 80.2766 43.9779C75.8216 43.9779 72.7798 42.2112 71.1511 38.6777L64.0374 42.8319ZM128.664 52C120.856 52 115.467 48.944 112.497 42.8319L119.611 38.6777C121.239 42.2112 124.281 43.9779 128.736 43.9779C131.61 43.9779 133.814 43.2856 135.347 41.9009C136.928 40.4683 137.718 38.4628 137.718 35.8843L137.718 0.931152L145.981 0.931152L145.981 35.8843C145.981 41.0414 144.353 45.0284 141.095 47.8457C137.838 50.6152 133.694 52 128.664 52ZM26.0832 43.9779Q21.7961 43.9779 18.2745 42.3359Q15.5987 41.0883 13.3649 38.8926Q11.3775 36.8835 10.1643 34.4833L10.1643 34.4832Q8.26324 30.722 8.26324 26Q8.26324 21.2018 10.2261 17.4233Q11.4277 15.1101 13.3649 13.1791Q15.6656 10.8857 18.4353 9.61218L18.4353 9.61218Q21.8936 8.02209 26.0832 8.02209Q30.3537 8.02209 33.8415 9.67432L33.8416 9.67432L33.842 9.67456Q36.5158 10.9413 38.7295 13.1791Q40.7641 15.179 41.9985 17.5887L41.9986 17.5889Q43.903 21.3066 43.903 26Q43.903 30.6177 42.0595 34.3165Q40.8148 36.814 38.7295 38.8926Q36.5822 41.0331 34.002 42.2726L34.0018 42.2727Q30.4521 43.9779 26.0832 43.9779ZM189.917 43.9779C184.887 43.9779 180.648 42.2828 177.199 38.8926C173.797 35.4546 172.097 31.157 172.097 26C172.097 20.843 173.797 16.5693 177.199 13.1791C180.648 9.74109 184.887 8.02209 189.917 8.02209C194.947 8.02209 199.162 9.74109 202.563 13.1791C206.012 16.5693 207.737 20.843 207.737 26C207.737 31.157 206.012 35.4546 202.563 38.8926C199.162 42.2828 194.947 43.9779 189.917 43.9779Z" fill="#FFFFFF" fill-opacity="1.000000" fill-rule="evenodd"/>
	<path id="Vector" d="M36.1308 23.933L36.1248 23.8809C36.1137 23.8156 36.0938 23.7524 36.0658 23.6937L33.1246 18.4231C33.1246 18.4231 32.7495 17.9064 32.6604 17.9064L20.1267 17.9064L16.3574 23.515L16.3128 23.5667L16.3068 23.5909C16.2749 23.6478 16.2488 23.7085 16.2288 23.7719L16.2135 23.8219C16.17 23.9823 16.1721 24.1538 16.2195 24.3129L16.2372 24.3691C16.2608 24.4359 16.2901 24.4968 16.3244 24.5511L25.4373 37.4019L25.4559 37.4313C25.5027 37.4984 25.5598 37.5579 25.6295 37.6122L25.6824 37.6488C25.7344 37.6849 25.7887 37.714 25.8676 37.746L25.9191 37.7651C26.0083 37.7904 26.0858 37.8022 26.1615 37.8022C26.238 37.8022 26.3128 37.7909 26.4135 37.762L26.4753 37.7377C26.5356 37.714 26.5899 37.6844 26.6554 37.6395L26.6962 37.6111C26.7663 37.5558 26.8225 37.4958 26.8536 37.4489L35.9781 24.5847C36.0587 24.4648 36.1114 24.3246 36.1313 24.1764L36.1382 24.1097L36.1419 24.057L36.1308 23.933ZM31.238 23.5909L32.5369 20.9745L33.8348 23.5909L31.238 23.5909ZM30.4591 25.1412L33.5405 25.1412L28.4045 32.3839L30.4591 25.1412ZM29.6969 22.8064L27.821 19.9735L31.103 19.9735L29.6969 22.8064ZM23.6881 25.1412L28.6361 25.1412L26.1615 33.8629L23.6881 25.1412ZM24.1788 23.5909L26.1615 20.5957L28.1441 23.5909L24.1788 23.5909ZM22.7825 22.5718L21.9228 19.9735L24.5024 19.9735L22.7825 22.5718ZM23.9193 32.3844L18.7829 25.1412L21.8647 25.1412L23.9193 32.3844ZM20.4355 20.9926L21.2956 23.5909L18.7155 23.5909L20.4355 20.9926Z" fill="#FFFFFF" fill-opacity="1.000000" fill-rule="nonzero"/>
	<path id="Vector" d="M199.799 23.933L199.793 23.8809C199.782 23.8156 199.762 23.7524 199.734 23.6937L196.793 18.4231C196.793 18.4231 196.418 17.9064 196.329 17.9064L183.795 17.9064L180.026 23.515L179.981 23.5667L179.975 23.5909C179.943 23.6478 179.917 23.7085 179.897 23.7719L179.882 23.8219C179.839 23.9823 179.841 24.1538 179.888 24.3129L179.906 24.3691C179.929 24.4359 179.959 24.4968 179.993 24.5511L189.106 37.4019L189.124 37.4313C189.171 37.4984 189.228 37.5579 189.298 37.6122L189.351 37.6488C189.403 37.6849 189.457 37.714 189.536 37.746L189.588 37.7651C189.677 37.7904 189.754 37.8022 189.83 37.8022C189.907 37.8022 189.981 37.7909 190.082 37.762L190.144 37.7377C190.204 37.714 190.258 37.6844 190.324 37.6395L190.365 37.6111C190.435 37.5558 190.491 37.4958 190.522 37.4489L199.647 24.5847C199.727 24.4648 199.78 24.3246 199.8 24.1764L199.807 24.1097L199.81 24.057L199.799 23.933ZM194.906 23.5909L196.205 20.9745L197.503 23.5909L194.906 23.5909ZM194.128 25.1412L197.209 25.1412L192.073 32.3839L194.128 25.1412ZM193.365 22.8064L191.489 19.9735L194.771 19.9735L193.365 22.8064ZM187.357 25.1412L192.305 25.1412L189.83 33.8629L187.357 25.1412ZM187.847 23.5909L189.83 20.5957L191.813 23.5909L187.847 23.5909ZM186.451 22.5718L185.591 19.9735L188.171 19.9735L186.451 22.5718ZM187.588 32.3844L182.451 25.1412L185.533 25.1412L187.588 32.3844ZM184.104 20.9926L184.964 23.5909L182.384 23.5909L184.104 20.9926Z" fill="#FFFFFF" fill-opacity="1.000000" fill-rule="nonzero"/>
</svg>
